<svg xmlns="http://www.w3.org/2000/svg">
  <defs>
    <symbol
      id="previous"
      viewBox="0 0 24 24"
      stroke-width="1.5"
      stroke="currentColor"
      fill="none"
      stroke-linecap="round"
      stroke-linejoin="round"
    >
      <path stroke="none" d="M0 0h24v24H0z" fill="none"></path>
      <polyline points="15 6 9 12 15 18"></polyline>
    </symbol>

    <symbol
      id="next"
      viewBox="0 0 24 24"
      stroke-width="1.5"
      stroke="currentColor"
      fill="none"
      stroke-linecap="round"
      stroke-linejoin="round"
    >
      <path stroke="none" d="M0 0h24v24H0z" fill="none"></path>
      <polyline points="9 6 15 12 9 18"></polyline>
    </symbol>

    <symbol id="calendar-outline" viewBox="0 0 24 24">
      <path fill="currentColor" d="M12 12H17V17H12V12M19 3H18V1H16V3H8V1H6V3H5C3.9 3 3 3.9 3 5V19C3 20.1 3.9 21 5 21H19C20.1 21 21 20.1 21 19V5C21 3.9 20.1 3 19 3M19 5V7H5V5H19M5 19V9H19V19H5Z" />
    </symbol>

    <symbol id="lightbulb-on" viewBox="0 0 24 24">
      <path fill="currentColor" d="M12,6A6,6 0 0,1 18,12C18,14.22 16.79,16.16 15,17.2V19A1,1 0 0,1 14,20H10A1,1 0 0,1 9,19V17.2C7.21,16.16 6,14.22 6,12A6,6 0 0,1 12,6M14,21V22A1,1 0 0,1 13,23H11A1,1 0 0,1 10,22V21H14M20,11H23V13H20V11M1,11H4V13H1V11M13,1V4H11V1H13M4.92,3.5L7.05,5.64L5.63,7.05L3.5,4.93L4.92,3.5M16.95,5.63L19.07,3.5L20.5,4.93L18.37,7.05L16.95,5.63Z" />
    </symbol>

    <symbol id="lightbulb-outline" viewBox="0 0 24 24">
      <path fill="currentColor" d="M12,2A7,7 0 0,1 19,9C19,11.38 17.81,13.47 16,14.74V17A1,1 0 0,1 15,18H9A1,1 0 0,1 8,17V14.74C6.19,13.47 5,11.38 5,9A7,7 0 0,1 12,2M9,21V20H15V21A1,1 0 0,1 14,22H10A1,1 0 0,1 9,21M12,4A5,5 0 0,0 7,9C7,11.05 8.23,12.81 10,13.58V16H14V13.58C15.77,12.81 17,11.05 17,9A5,5 0 0,0 12,4Z" />
    </symbol>

    <symbol id="close" viewBox="0 0 24 24">
      <path fill="currentColor" d="M19,6.41L17.59,5L12,10.59L6.41,5L5,6.41L10.59,12L5,17.59L6.41,19L12,13.41L17.59,19L19,17.59L13.41,12L19,6.41Z" />
    </symbol>

    <symbol id="dots-vertical" viewBox="0 0 24 24">
      <path
        fill="currentColor"
        d="M12,16A2,2 0 0,1 14,18A2,2 0 0,1 12,20A2,2 0 0,1 10,18A2,2 0 0,1 12,16M12,10A2,2 0 0,1 14,12A2,2 0 0,1 12,14A2,2 0 0,1 10,12A2,2 0 0,1 12,10M12,4A2,2 0 0,1 14,6A2,2 0 0,1 12,8A2,2 0 0,1 10,6A2,2 0 0,1 12,4Z"
      />
    </symbol>

    <symbol id="account" viewBox="0 0 24 24">
      <path fill="currentColor" d="M12,4A4,4 0 0,1 16,8A4,4 0 0,1 12,12A4,4 0 0,1 8,8A4,4 0 0,1 12,4M12,14C16.42,14 20,15.79 20,18V20H4V18C4,15.79 7.58,14 12,14Z" />
    </symbol>

    <symbol id="delete-outline" viewBox="0 0 24 24">
      <path fill="currentColor" d="M6,19A2,2 0 0,0 8,21H16A2,2 0 0,0 18,19V7H6V19M8,9H16V19H8V9M15.5,4L14.5,3H9.5L8.5,4H5V6H19V4H15.5Z" />
    </symbol>
  </defs>
</svg>
